<svg xmlns="http://www.w3.org/2000/svg" viewBox="0 0 1024 1024" role="img" aria-label="Drakon Games logo">
  <defs>
    <radialGradient id="glow" cx="50%" cy="46%" r="34%">
      <stop offset="0%" stop-color="#ffb34f"/>
      <stop offset="45%" stop-color="#ff6f00"/>
      <stop offset="100%" stop-color="#130600"/>
    </radialGradient>
    <linearGradient id="ember" x1="0%" y1="0%" x2="100%" y2="100%">
      <stop offset="0%" stop-color="#fff9f0"/>
      <stop offset="34%" stop-color="#d7d8db"/>
      <stop offset="55%" stop-color="#8f9095"/>
      <stop offset="75%" stop-color="#ff8d1e"/>
      <stop offset="100%" stop-color="#632100"/>
    </linearGradient>
    <linearGradient id="lava" x1="0%" y1="0%" x2="0%" y2="100%">
      <stop offset="0%" stop-color="#ffe778"/>
      <stop offset="40%" stop-color="#ffb300"/>
      <stop offset="100%" stop-color="#ff5a00"/>
    </linearGradient>
    <filter id="softGlow" x="-20%" y="-20%" width="140%" height="140%">
      <feGaussianBlur stdDeviation="18" result="blur"/>
      <feMerge>
        <feMergeNode in="blur"/>
        <feMergeNode in="SourceGraphic"/>
      </feMerge>
    </filter>
    <filter id="shadow" x="-20%" y="-20%" width="140%" height="140%">
      <feDropShadow dx="0" dy="10" stdDeviation="16" flood-color="#000" flood-opacity=".7"/>
    </filter>
  </defs>
  <rect width="1024" height="1024" fill="#000"/>
  <circle cx="512" cy="406" r="250" fill="url(#glow)" opacity=".95"/>
  <g filter="url(#softGlow)" opacity=".9">
    <path d="M235 526c44-78 122-144 190-162-44 54-54 120-36 169-55-11-109-15-154-7z" fill="#ff7a12" opacity=".55"/>
    <path d="M789 526c-44-78-122-144-190-162 44 54 54 120 36 169 55-11 109-15 154-7z" fill="#ff7a12" opacity=".55"/>
  </g>
  <g filter="url(#shadow)">
    <path d="M405 245c17-54 58-110 94-129-6 39 8 76 27 101-44 1-82 8-121 28z" fill="#1f2128" stroke="#8b8e97" stroke-width="10"/>
    <path d="M619 245c-17-54-58-110-94-129 6 39-8 76-27 101 44 1 82 8 121 28z" fill="#1f2128" stroke="#8b8e97" stroke-width="10"/>
    <path d="M510 185l31 0 18 77-18 69-31 0-18-69z" fill="#761400"/>
    <path d="M349 333l58-44 83 34-57 30z" fill="#8b1100"/>
    <path d="M675 333l-58-44-83 34 57 30z" fill="#8b1100"/>
    <path d="M296 471c18-96 101-192 215-214 114 22 197 118 215 214-10 71-43 129-93 167-28 21-66 35-122 40-56-5-94-19-122-40-50-38-83-96-93-167z" fill="#171a20" stroke="#5a5d66" stroke-width="12"/>
    <path d="M363 409l74-59 75 31-54 53z" fill="#ff5d0e"/>
    <path d="M659 409l-74-59-75 31 54 53z" fill="#ff5d0e"/>
    <path d="M398 421l56 7-24 36-59 0z" fill="#ffd24a"/>
    <path d="M626 421l-56 7 24 36 59 0z" fill="#ffd24a"/>
    <path d="M459 516l53-35 53 35-14 64h-78z" fill="#272a31"/>
    <path d="M437 534c28-11 52-17 75-17s47 6 75 17c-15 42-40 69-75 78-35-9-60-36-75-78z" fill="#0f1115"/>
    <path d="M455 563l57 0 57 0-15 31-42 24-42-24z" fill="#ff6d00"/>
    <path d="M463 573l49 0 49 0-9 22-40 42-40-42z" fill="url(#lava)"/>
    <path d="M435 634l27-59 26 16-14 61z" fill="#ffd04a"/>
    <path d="M589 634l-27-59-26 16 14 61z" fill="#ffd04a"/>
    <path d="M462 650l17-47 18 20-12 53z" fill="#fff0a8"/>
    <path d="M562 650l-17-47-18 20 12 53z" fill="#fff0a8"/>
  </g>
  <g filter="url(#shadow)">
    <path d="M126 577l170-27 67 24-62 93-175 63 44-85z" fill="#171a20" stroke="#7b7f89" stroke-width="8"/>
    <path d="M898 577l-170-27-67 24 62 93 175 63-44-85z" fill="#171a20" stroke="#7b7f89" stroke-width="8"/>
    <path d="M154 598l133-19 40 15-32 49-111 39 23-47z" fill="#510000"/>
    <path d="M870 598l-133-19-40 15 32 49 111 39-23-47z" fill="#510000"/>
  </g>
  <g filter="url(#shadow)">
    <path d="M165 652h694l-52 53-18 122-80-53H315l-80 53-18-122z" fill="#21150f" stroke="#5b4032" stroke-width="8"/>
    <path d="M221 669h582l-41 44-15 80-56-34H333l-56 34-15-80z" fill="#0d0d0f"/>
    <text x="512" y="748" text-anchor="middle" font-family="Impact, Arial Black, sans-serif" font-size="142" font-weight="900" letter-spacing="2" fill="url(#ember)" stroke="#20160f" stroke-width="12">DRAKON</text>
    <text x="512" y="825" text-anchor="middle" font-family="Impact, Arial Black, sans-serif" font-size="68" font-weight="900" letter-spacing="8" fill="url(#lava)" stroke="#301400" stroke-width="6">GAMES</text>
  </g>
</svg>
